<?xml version="1.0" encoding="UTF-8" standalone="no"?>
<!-- Created with Inkscape (http://www.inkscape.org/) -->

<svg
   xmlns:osb="http://www.openswatchbook.org/uri/2009/osb"
   xmlns:dc="http://purl.org/dc/elements/1.1/"
   xmlns:cc="http://creativecommons.org/ns#"
   xmlns:rdf="http://www.w3.org/1999/02/22-rdf-syntax-ns#"
   xmlns:svg="http://www.w3.org/2000/svg"
   xmlns="http://www.w3.org/2000/svg"
   xmlns:xlink="http://www.w3.org/1999/xlink"
   xmlns:sodipodi="http://sodipodi.sourceforge.net/DTD/sodipodi-0.dtd"
   xmlns:inkscape="http://www.inkscape.org/namespaces/inkscape"
   width="123.7793mm"
   height="30.946798mm"
   viewBox="0 0 123.7793 30.946798"
   version="1.1"
   id="svg965"
   inkscape:version="0.92.3 (2405546, 2018-03-11)"
   sodipodi:docname="logo.svg">
  <defs
     id="defs959">
    <linearGradient
       gradientTransform="matrix(1.25,0,0,4.4444444,-6.48425,-1048.9291)"
       id="linearGradient1155"
       osb:paint="solid">
      <stop
         style="stop-color:#0c3983;stop-opacity:1;"
         offset="0"
         id="stop1153" />
    </linearGradient>
    <linearGradient
       inkscape:collect="always"
       id="linearGradient4910">
      <stop
         style="stop-color:#0c3983;stop-opacity:1"
         offset="0"
         id="stop4906" />
      <stop
         id="stop4914"
         offset="0.79410076"
         style="stop-color:#34a8ff;stop-opacity:1" />
      <stop
         style="stop-color:#186df6;stop-opacity:1"
         offset="1"
         id="stop4908" />
    </linearGradient>
    <linearGradient
       inkscape:collect="always"
       id="linearGradient4949">
      <stop
         style="stop-color:#f0fafa;stop-opacity:1;"
         offset="0"
         id="stop4945" />
      <stop
         id="stop4953"
         offset="0.72551388"
         style="stop-color:#ffffff;stop-opacity:1" />
      <stop
         style="stop-color:#f0fafa;stop-opacity:1"
         offset="1"
         id="stop4947" />
    </linearGradient>
    <linearGradient
       id="linearGradient1036"
       osb:paint="solid"
       gradientTransform="translate(-213.49964,-47.708001)">
      <stop
         style="stop-color:#ffffff;stop-opacity:1;"
         offset="0"
         id="stop1034" />
    </linearGradient>
    <linearGradient
       inkscape:collect="always"
       xlink:href="#linearGradient4949"
       id="linearGradient6461"
       gradientUnits="userSpaceOnUse"
       x1="-87.993881"
       y1="-159.70859"
       x2="-89.678757"
       y2="2.4225845" />
    <mask
       maskUnits="userSpaceOnUse"
       id="mask5093">
      <g
         transform="matrix(-1.1683818,0,0,-1.1683818,29.558779,47.359103)"
         style="fill:url(#linearGradient5101);fill-opacity:1"
         id="g5097">
        <path
           inkscape:connector-curvature="0"
           d="m 75.10157,91.964426 c 1.451982,-1.010307 0.169803,-3.967939 -1.318024,-3.011189 -16.983391,10.921286 -4.183484,32.125583 17.247935,18.629353 2.091377,-1.30947 4.097877,0.34544 7.759313,-0.006 5.492176,-0.52758 11.981346,-7.987107 12.632876,-10.821063 0.65151,-2.834007 -0.2214,-4.228263 -3.05542,-4.879769 -2.83399,-0.65154 -12.378489,1.928027 -15.251776,6.638311 -1.915472,3.140141 -1.303199,5.668171 -3.394375,6.977511 -17.223496,9.83711 -26.193876,-5.47424 -14.620529,-13.527154 z m 38.6249,15.506554 c -2.68457,1.71335 -4.6105,-1.79086 -2.16627,-3.83236 18.72958,-15.64355 3.22765,-25.573309 -13.839064,-15.160071 -2.032522,1.254734 0.05823,4.642306 -2.651888,6.314959 l -16.470044,9.697212 c -1.01626,0.62735 -1.643582,-0.38907 -0.627357,-1.01625 l 13.550862,-8.363314 c 1.355127,-0.836255 0.518729,-2.191408 -0.836256,-1.355137 l -13.550854,8.363311 c -1.016269,0.62736 -1.643585,-0.38907 -0.627367,-1.01627 l 14.567145,-8.990609 c 1.355126,-0.836255 0.518745,-2.191402 -0.836256,-1.355128 l -14.567151,8.99062 c -1.016255,0.627347 -1.643576,-0.389057 -0.627359,-1.016244 l 13.550854,-8.363322 c 1.35513,-0.836255 0.518746,-2.191424 -0.836256,-1.355136 L 74.20834,97.37657 c -1.016254,0.627356 -1.643583,-0.389084 -0.627365,-1.016273 L 89.632851,85.985561 c 2.710227,-1.672491 4.801011,1.715157 6.833662,0.46065 30.547427,-17.838189 35.678587,9.269687 17.259957,21.024769 z m -25.474151,65.16016 -18.38496,-1.81949 c 1.838299,-8.63932 4.368106,-34.06169 3.421054,-37.5454 -1.559781,-5.90787 -6.600255,-10.3672 -8.494358,-15.10469 -9.636192,-24.07817 2.138199,-45.040358 28.768648,-47.821619 23.514527,-2.456129 36.594137,10.896131 38.432837,24.691062 0.19485,1.476999 0,2.953999 -0.69642,4.486799 3.23044,5.044168 10.66665,12.485178 11.30697,16.052298 0.39005,2.14581 -2.14436,2.89824 -3.36987,3.65073 -1.16976,0.3902 -2.45075,0.11142 -3.23044,1.059 -0.557,0.69674 0.19485,1.86718 0.36215,2.73111 0.0279,1.42125 1.69854,2.11799 1.53157,3.42775 -0.16732,1.11474 -1.11401,1.56067 -1.97739,2.25737 -0.91912,0.7245 2.33953,2.11793 1.28132,3.39992 -1.08609,1.254 -2.6738,2.70318 -2.11648,4.48674 0.80762,2.75893 2.3674,5.62913 1.08609,7.77511 -1.28132,2.11799 -3.06348,3.372 -5.82057,3.92926 -4.31658,0 -8.66115,0.0842 -13.00572,0.0842 -1.5037,1.30975 -3.55102,5.54568 -4.38691,11.23084 l -0.32914,12.85838 z"
           style="fill:url(#linearGradient5101);fill-opacity:1;fill-rule:evenodd;stroke:none;stroke-width:0.87732542;stroke-miterlimit:4;stroke-dasharray:none;stroke-opacity:1"
           id="path5095" />
      </g>
    </mask>
    <linearGradient
       inkscape:collect="always"
       xlink:href="#linearGradient4910"
       id="linearGradient5101"
       gradientUnits="userSpaceOnUse"
       x1="101.8462"
       y1="172.65071"
       x2="102.05357"
       y2="38.460476" />
    <linearGradient
       inkscape:collect="always"
       xlink:href="#linearGradient4910"
       id="linearGradient6465"
       gradientUnits="userSpaceOnUse"
       x1="-89.824379"
       y1="-156.5088"
       x2="-89.678757"
       y2="2.4225845" />
    <linearGradient
       inkscape:collect="always"
       xlink:href="#linearGradient4949"
       id="linearGradient1720"
       gradientUnits="userSpaceOnUse"
       x1="-87.993881"
       y1="-159.70859"
       x2="-89.678757"
       y2="2.4225845" />
  </defs>
  <sodipodi:namedview
     id="base"
     pagecolor="#ffffff"
     bordercolor="#666666"
     borderopacity="1.0"
     inkscape:pageopacity="0.0"
     inkscape:pageshadow="2"
     inkscape:zoom="0.35"
     inkscape:cx="893.91364"
     inkscape:cy="-61.517861"
     inkscape:document-units="mm"
     inkscape:current-layer="layer1"
     showgrid="false"
     fit-margin-top="0"
     fit-margin-left="0"
     fit-margin-right="0"
     fit-margin-bottom="0"
     inkscape:window-width="1313"
     inkscape:window-height="740"
     inkscape:window-x="53"
     inkscape:window-y="28"
     inkscape:window-maximized="1" />
  <metadata
     id="metadata962">
    <rdf:RDF>
      <cc:Work
         rdf:about="">
        <dc:format>image/svg+xml</dc:format>
        <dc:type
           rdf:resource="http://purl.org/dc/dcmitype/StillImage" />
        <dc:title></dc:title>
      </cc:Work>
    </rdf:RDF>
  </metadata>
  <g
     inkscape:label="Layer 1"
     inkscape:groupmode="layer"
     id="layer1"
     transform="translate(294.72298,-101.60993)">
    <g
       id="g6634"
       transform="translate(-542.51688,6.8243792)">
      <text
         xml:space="preserve"
         style="font-style:normal;font-variant:normal;font-weight:600;font-stretch:normal;font-size:11.28888893px;line-height:1;font-family:Montserrat;-inkscape-font-specification:'Montserrat Semi-Bold';text-align:start;letter-spacing:0px;word-spacing:0px;text-anchor:start;fill:url(#linearGradient1036);fill-opacity:1;stroke:none;stroke-width:0.26458332"
         x="283.33041"
         y="112.17441"
         id="text1051-9-2"><tspan
           sodipodi:role="line"
           x="283.33041"
           y="112.17441"
           style="font-style:normal;font-variant:normal;font-weight:600;font-stretch:normal;font-size:11.28888893px;line-height:1;font-family:Montserrat;-inkscape-font-specification:'Montserrat Semi-Bold';text-align:start;text-anchor:start;fill:url(#linearGradient1036);stroke-width:0.26458332"
           id="tspan1049-8-6">Brawijaya</tspan><tspan
           id="tspan1071-8-1"
           sodipodi:role="line"
           x="283.33041"
           y="123.46329"
           style="font-style:normal;font-variant:normal;font-weight:600;font-stretch:normal;font-size:11.28888893px;line-height:1;font-family:Montserrat;-inkscape-font-specification:'Montserrat Semi-Bold';text-align:start;text-anchor:start;fill:url(#linearGradient1036);stroke-width:0.26458332">Sensory Center</tspan></text>
      <g
         id="g6459"
         transform="matrix(0.56591121,0,0,0.56591121,218.73456,85.512907)">
        <path
           inkscape:transform-center-y="-7.1468805"
           transform="matrix(-0.3321163,0,0,-0.33606311,49.273407,17.199449)"
           d="m -89.678754,2.4225845 c -10.279814,3e-7 -79.988806,-50.6465435 -83.165446,-60.4232275 -3.17663,-9.776684 23.44983,-91.724517 31.76637,-97.766837 8.31655,-6.04233 94.481597,-6.04233 102.798141,-1e-5 8.316544,6.04233 34.9430115,87.990158 31.7663745,97.766842 C -9.6899514,-48.223964 -79.39894,2.4225843 -89.678754,2.4225845 Z"
           inkscape:randomized="0"
           inkscape:rounded="0.1"
           inkscape:flatsided="true"
           sodipodi:arg2="2.1991149"
           sodipodi:arg1="1.5707963"
           sodipodi:r2="70.744751"
           sodipodi:r1="87.44532"
           sodipodi:cy="-85.022736"
           sodipodi:cx="-89.678757"
           sodipodi:sides="5"
           id="path6453"
           style="fill:url(#linearGradient1720);fill-opacity:1;stroke:none;stroke-width:0.11683818;stroke-miterlimit:4;stroke-dasharray:none"
           sodipodi:type="star" />
        <path
           mask="url(#mask5093)"
           sodipodi:type="star"
           style="fill:url(#linearGradient6461);fill-opacity:1;stroke:none;stroke-width:0.11683818;stroke-miterlimit:4;stroke-dasharray:none"
           id="path6455"
           sodipodi:sides="5"
           sodipodi:cx="-89.678757"
           sodipodi:cy="-85.022736"
           sodipodi:r1="87.44532"
           sodipodi:r2="70.744751"
           sodipodi:arg1="1.5707963"
           sodipodi:arg2="2.1991149"
           inkscape:flatsided="true"
           inkscape:rounded="0.1"
           inkscape:randomized="0"
           d="m -89.678754,2.4225845 c -10.279814,3e-7 -79.988806,-50.6465435 -83.165446,-60.4232275 -3.17663,-9.776684 23.44983,-91.724517 31.76637,-97.766837 8.31655,-6.04233 94.481597,-6.04233 102.798141,-1e-5 8.316544,6.04233 34.9430115,87.990158 31.7663745,97.766842 C -9.6899514,-48.223964 -79.39894,2.4225843 -89.678754,2.4225845 Z"
           transform="matrix(-0.3321163,0,0,-0.33606311,49.273407,17.199449)"
           inkscape:transform-center-y="-7.1468805" />
        <path
           sodipodi:type="star"
           style="fill:none;fill-opacity:1;stroke:url(#linearGradient6465);stroke-width:1.75257266;stroke-miterlimit:4;stroke-dasharray:none;stroke-opacity:1"
           id="path6457"
           sodipodi:sides="5"
           sodipodi:cx="-89.678757"
           sodipodi:cy="-84.608124"
           sodipodi:r1="81.486626"
           sodipodi:r2="65.924057"
           sodipodi:arg1="1.5707963"
           sodipodi:arg2="2.1991149"
           inkscape:flatsided="true"
           inkscape:rounded="0.1"
           inkscape:randomized="0"
           d="m -89.678755,-3.1214981 c -9.579327,2e-7 -74.538215,-47.1953899 -77.498385,-56.3058719 -2.96018,-9.110481 21.85191,-85.47423 29.60174,-91.10482 7.74984,-5.63059 88.04344,-5.63059 95.793278,0 7.749839,5.63059 32.561927,81.994334 29.601752,91.104816 -2.960174,9.110482 -67.919057,56.3058756 -77.498385,56.3058759 z"
           transform="matrix(-0.3321163,0,0,-0.33606311,49.273407,17.199449)"
           inkscape:transform-center-y="-6.659878"
           inkscape:transform-center-x="1.06289e-05" />
      </g>
    </g>
  </g>
</svg>
